<?xml version="1.0" standalone="no"?>
<!DOCTYPE svg PUBLIC "-//W3C//DTD SVG 20010904//EN"
 "http://www.w3.org/TR/2001/REC-SVG-20010904/DTD/svg10.dtd">
<svg version="1.0" xmlns="http://www.w3.org/2000/svg"
 width="1600.000000pt" height="1600.000000pt" viewBox="0 0 1600.000000 1600.000000"
 preserveAspectRatio="xMidYMid meet">
<metadata>
Created by potrace 1.11, written by Peter Selinger 2001-2013
</metadata>
<g transform="translate(0.000000,1600.000000) scale(0.100000,-0.100000)"
fill="#000000" stroke="none">
<path d="M0 8000 l0 -8000 8000 0 8000 0 0 8000 0 8000 -8000 0 -8000 0 0
-8000z m6289 4085 c586 -65 1168 -232 1744 -500 43 -20 58 -32 54 -44 -6 -20
-527 -1334 -531 -1338 -1 -2 -81 32 -177 76 -379 171 -803 325 -1031 376 -530
117 -1024 71 -1418 -130 -152 -78 -266 -162 -396 -290 -269 -267 -455 -603
-573 -1042 -122 -450 -164 -1009 -120 -1598 77 -1035 429 -1697 1060 -1994
169 -79 354 -131 579 -162 138 -20 539 -17 720 5 449 53 925 164 1435 336 82
27 153 50 157 50 4 0 8 -314 8 -699 l0 -698 -117 -46 c-645 -250 -1371 -370
-2148 -354 -555 12 -985 90 -1400 254 -1094 433 -1767 1398 -1964 2813 -46
329 -55 487 -56 925 0 489 15 686 81 1055 153 848 513 1570 1041 2081 571 553
1305 865 2208 939 164 13 675 4 844 -15z m5951 0 c377 -41 724 -122 1150 -267
225 -76 661 -250 667 -265 4 -10 -511 -1269 -527 -1286 -4 -4 -65 15 -136 44
-446 178 -837 301 -1124 353 -348 63 -707 71 -925 21 -269 -63 -462 -207 -565
-420 -52 -108 -72 -204 -71 -345 0 -242 83 -414 281 -585 158 -137 297 -215
1015 -571 633 -314 840 -429 1105 -613 522 -363 795 -730 925 -1246 46 -180
65 -353 65 -583 0 -218 -10 -333 -46 -510 -180 -901 -918 -1528 -2017 -1716
-288 -50 -444 -61 -842 -61 -464 1 -735 25 -1115 102 -358 71 -767 206 -1040
341 l-55 27 -3 773 c-1 454 2 772 7 772 5 0 82 -32 172 -71 1001 -434 1774
-615 2389 -558 586 53 891 310 917 769 16 298 -120 534 -444 766 -152 109
-465 278 -938 506 -851 410 -1176 625 -1482 982 -293 342 -456 699 -508 1115
-24 189 -17 573 14 746 99 557 345 965 778 1291 378 285 877 452 1503 504 159
13 681 4 850 -15z"/>
</g>
</svg>
